<svg width="522.03125px" height="121.39999999999999px" xmlns="http://www.w3.org/2000/svg"
    viewBox="-11.015625 14.300000000000004 522.03125 121.39999999999999"
    style="background: rgba(242, 237, 219, 0);" preserveAspectRatio="xMidYMid">
    <defs>
        <filter id="editing-vintage" x="-100%" y="-100%" width="300%" height="300%">
            <feConvolveMatrix in="SourceGraphic" result="extrude" order="9,9" divisor="1"
                kernelMatrix="1,0,0,0,0,0,0,0,0,0,1,0,0,0,0,0,0,0,0,0,1,0,0,0,0,0,0,0,0,0,1,0,0,0,0,0,0,0,0,0,1,0,0,0,0,0,0,0,0,0,1,0,0,0,0,0,0,0,0,0,1,0,0,0,0,0,0,0,0,0,1,0,0,0,0,0,0,0,0,0,1"></feConvolveMatrix>
            <feFlood flood-color="#330a0a" result="flood-extrude"></feFlood>
            <feComposite operator="in" in="flood-extrude" in2="extrude"
                result="extrude-color"></feComposite>
            <feOffset dx="5" dy="5" in="extrude-color" result="extrude-offset"></feOffset>
            <feColorMatrix in="SourceGraphic" result="stroke" type="matrix"
                values="0 0 0 0 0 0 0 0 0 0 0 0 0 0 0 0 1 0 0 0 "></feColorMatrix>
            <feColorMatrix in="SourceGraphic" result="fill" type="matrix"
                values="0 0 0 0 0 0 0 0 0 0 0 0 0 0 0 1 0 0 1 0 "></feColorMatrix>
            <feConvolveMatrix in="stroke" result="inner-shadow" order="5,5" divisor="1"
                kernelMatrix="1 0 0 0 0 0 1 0 0 0 0 0 1 0 0 0 0 0 1 0 0 0 0 0 1 "></feConvolveMatrix>
            <feOffset dx="1" dy="1" in="inner-shadow" result="offset"></feOffset>
            <feComposite operator="in" in="offset" in2="SourceAlpha" result="comp"></feComposite>
            <feFlood flood-color="#000" result="flood3"></feFlood>
            <feComposite operator="in" in="flood3" in2="comp" result="comp2"></feComposite>
            <feColorMatrix in="comp2" result="comp3" type="matrix"
                values="1 0 0 0 0 0 1 0 0 0 0 0 1 0 0 0 0 0 0.5 0 "></feColorMatrix>
            <feFlood flood-color="#00afff" result="flood1"></feFlood>
            <feComposite operator="in" in="flood1" in2="fill" result="fill2"></feComposite>
            <feFlood flood-color="#fff" result="flood2"></feFlood>
            <feComposite operator="in" in="flood2" in2="stroke" result="stroke2"></feComposite>
            <feMerge result="obj">
                <feMergeNode in="extrude-offset"></feMergeNode>
                <feMergeNode in="fill2"></feMergeNode>
                <feMergeNode in="comp3"></feMergeNode>
            </feMerge>
            <feConvolveMatrix in="SourceAlpha" result="shadow" order="9,9" divisor="1"
                kernelMatrix="1,0,0,0,0,0,0,0,0,0,1,0,0,0,0,0,0,0,0,0,1,0,0,0,0,0,0,0,0,0,1,0,0,0,0,0,0,0,0,0,1,0,0,0,0,0,0,0,0,0,1,0,0,0,0,0,0,0,0,0,1,0,0,0,0,0,0,0,0,0,1,0,0,0,0,0,0,0,0,0,1"></feConvolveMatrix>
            <feOffset dx="15" dy="15" in="shadow" result="shadow-offset"></feOffset>
            <feFlood flood-color="#444444" result="flood-shadow"></feFlood>
            <feComposite operator="in" in="flood-shadow" in2="shadow-offset"
                result="shadow-color"></feComposite>
            <feMerge>
                <feMergeNode in="shadow-color"></feMergeNode>
                <feMergeNode in="obj"></feMergeNode>
            </feMerge>
        </filter>
    </defs>
    <g transform="translate(-9,-9)">
        <g filter="url(#editing-vintage)">
            <g transform="translate(65.67998960614204, 97.43000030517578)">
                <path
                    d="M26.11-42.69L26.11-42.69L26.11-42.69Q41.79-42.69 41.79-31.62L41.79-31.62L41.79-31.62Q41.79-25.54 37.89-21.89L37.89-21.89L37.89-21.89Q34.05-18.24 27.33-18.24L27.33-18.24L27.33-18.24Q24.19-18.24 21.76-20.03L21.76-20.03L21.76-20.03Q20.61-20.80 19.84-21.82L19.84-21.82L19.84-21.82Q24.51-21.82 26.98-24.67L26.98-24.67L26.98-24.67Q29.44-27.52 29.44-33.09L29.44-33.09L29.44-33.09Q29.44-38.66 23.94-38.66L23.94-38.66L22.40-38.66L22.40-38.66Q22.02-38.66 21.70-38.59L21.70-38.59L14.34 0L0.45 0L8.32-41.92L8.32-41.92Q15.17-42.56 19.14-42.62L19.14-42.62L19.14-42.62Q23.10-42.69 26.11-42.69ZM68.67 1.28L68.67 1.28L68.67 1.28Q60.48 1.28 59.71-10.37L59.71-10.37L48.70-10.37L48.70-10.37Q47.42-7.42 46.53-4.86L46.53-4.86L44.86 0L35.90 0L56.06-42.24L69.82-42.24L72.51-11.14L72.51-11.14Q73.15-4.42 75.71-2.43L75.71-2.43L75.71-2.43Q73.86 1.28 68.67 1.28ZM54.21-23.17L50.69-15.04L59.52-15.04L58.75-31.49L58.75-33.22L54.21-23.17ZM78.78-0.32L78.78-0.32L86.85-42.24L86.85-42.24Q94.40-42.88 99.26-42.88L99.26-42.88L99.26-42.88Q104.13-42.88 107.26-42.46L107.26-42.46L107.26-42.46Q110.40-42.05 112.51-40.96L112.51-40.96L112.51-40.96Q116.74-38.91 116.74-33.28L116.74-33.28L116.74-33.28Q116.74-30.02 113.92-27.26L113.92-27.26L113.92-27.26Q111.30-24.77 108.42-24.19L108.42-24.19L108.42-24.19Q111.49-23.68 113.66-21.38L113.66-21.38L113.66-21.38Q115.97-18.94 115.97-15.17L115.97-15.17L115.97-15.17Q115.97-7.87 110.53-3.62L110.53-3.62L110.53-3.62Q105.09 0.64 94.40 0.64L94.40 0.64L94.40 0.64Q87.04 0.64 78.78-0.32ZM96.19-20.61L92.99-4.03L92.99-4.03Q93.57-3.97 93.70-3.97L93.70-3.97L94.27-3.97L94.27-3.97Q99.52-3.97 101.76-7.42L101.76-7.42L101.76-7.42Q103.42-10.11 103.42-15.04L103.42-15.04L103.42-15.04Q103.42-17.66 101.73-19.07L101.73-19.07L101.73-19.07Q100.03-20.48 96.19-20.61L96.19-20.61ZM105.92-33.22L105.92-33.22L105.92-33.22Q105.92-38.53 100.80-38.53L100.80-38.53L100.22-38.53L100.22-38.53Q99.97-38.53 99.58-38.46L99.58-38.46L97.02-24.96L97.66-24.96L97.66-24.96Q105.92-25.15 105.92-33.22ZM146.94-9.86L146.94-9.86L146.94-9.86Q148.16-8.32 148.16-5.34L148.16-5.34L148.16-5.34Q148.16-2.37 145.89-0.54L145.89-0.54L145.89-0.54Q143.62 1.28 139.65 1.28L139.65 1.28L139.65 1.28Q137.34 1.28 133.76 0.77L133.76 0.77L133.76 0.77Q126.72-0.32 124.70-0.32L124.70-0.32L124.70-0.32Q122.69-0.32 121.86-0.22L121.86-0.22L121.86-0.22Q121.02-0.13 119.68 0L119.68 0L127.42-42.24L141.44-42.24L135.04-7.04L135.04-7.04Q135.87-6.91 136.64-6.91L136.64-6.91L138.24-6.91L138.24-6.91Q143.62-6.91 146.94-9.86ZM152.77-15.62L152.77-15.62L152.77-15.62Q152.77-27.71 159.04-35.33L159.04-35.33L159.04-35.33Q165.70-43.58 177.28-43.58L177.28-43.58L177.28-43.58Q185.66-43.58 189.89-39.52L189.89-39.52L189.89-39.52Q194.11-35.46 194.11-26.88L194.11-26.88L194.11-26.88Q194.11-13.82 187.46-6.21L187.46-6.21L187.46-6.21Q180.86 1.28 169.79 1.28L169.79 1.28L169.79 1.28Q161.15 1.28 156.96-3.04L156.96-3.04L156.96-3.04Q152.77-7.36 152.77-15.62ZM169.60-28.86L169.60-28.86L169.60-28.86Q166.72-17.34 166.72-8.26L166.72-8.26L166.72-8.26Q166.72-6.08 167.46-4.67L167.46-4.67L167.46-4.67Q168.19-3.26 170.14-3.26L170.14-3.26L170.14-3.26Q172.10-3.26 173.31-4.19L173.31-4.19L173.31-4.19Q174.53-5.12 175.49-7.23L175.49-7.23L175.49-7.23Q177.02-10.69 178.46-18.02L178.46-18.02L178.46-18.02Q179.90-25.34 180.03-28.38L180.03-28.38L180.03-28.38Q180.16-31.42 180.16-33.73L180.16-33.73L180.16-33.73Q180.16-36.03 179.46-37.50L179.46-37.50L179.46-37.50Q178.75-38.98 176.86-38.98L176.86-38.98L176.86-38.98Q174.98-38.98 173.70-37.82L173.70-37.82L173.70-37.82Q171.33-35.65 169.60-28.86ZM209.79-0.32L209.79-0.32L217.86-42.24L217.86-42.24Q225.41-42.88 230.27-42.88L230.27-42.88L230.27-42.88Q235.14-42.88 238.27-42.46L238.27-42.46L238.27-42.46Q241.41-42.05 243.52-40.96L243.52-40.96L243.52-40.96Q247.74-38.91 247.74-33.28L247.74-33.28L247.74-33.28Q247.74-30.02 244.93-27.26L244.93-27.26L244.93-27.26Q242.30-24.77 239.42-24.19L239.42-24.19L239.42-24.19Q242.50-23.68 244.67-21.38L244.67-21.38L244.67-21.38Q246.98-18.94 246.98-15.17L246.98-15.17L246.98-15.17Q246.98-7.87 241.54-3.62L241.54-3.62L241.54-3.62Q236.10 0.64 225.41 0.64L225.41 0.64L225.41 0.64Q218.05 0.64 209.79-0.32ZM227.20-20.61L224.00-4.03L224.00-4.03Q224.58-3.97 224.70-3.97L224.70-3.97L225.28-3.97L225.28-3.97Q230.53-3.97 232.77-7.42L232.77-7.42L232.77-7.42Q234.43-10.11 234.43-15.04L234.43-15.04L234.43-15.04Q234.43-17.66 232.74-19.07L232.74-19.07L232.74-19.07Q231.04-20.48 227.20-20.61L227.20-20.61ZM236.93-33.22L236.93-33.22L236.93-33.22Q236.93-38.53 231.81-38.53L231.81-38.53L231.23-38.53L231.23-38.53Q230.98-38.53 230.59-38.46L230.59-38.46L228.03-24.96L228.67-24.96L228.67-24.96Q236.93-25.15 236.93-33.22ZM277.95-9.86L277.95-9.86L277.95-9.86Q279.17-8.32 279.17-5.34L279.17-5.34L279.17-5.34Q279.17-2.37 276.90-0.54L276.90-0.54L276.90-0.54Q274.62 1.28 270.66 1.28L270.66 1.28L270.66 1.28Q268.35 1.28 264.77 0.77L264.77 0.77L264.77 0.77Q257.73-0.32 255.71-0.32L255.71-0.32L255.71-0.32Q253.70-0.32 252.86-0.22L252.86-0.22L252.86-0.22Q252.03-0.13 250.69 0L250.69 0L258.43-42.24L272.45-42.24L266.05-7.04L266.05-7.04Q266.88-6.91 267.65-6.91L267.65-6.91L269.25-6.91L269.25-6.91Q274.62-6.91 277.95-9.86ZM283.78-15.62L283.78-15.62L283.78-15.62Q283.78-27.71 290.05-35.33L290.05-35.33L290.05-35.33Q296.70-43.58 308.29-43.58L308.29-43.58L308.29-43.58Q316.67-43.58 320.90-39.52L320.90-39.52L320.90-39.52Q325.12-35.46 325.12-26.88L325.12-26.88L325.12-26.88Q325.12-13.82 318.46-6.21L318.46-6.21L318.46-6.21Q311.87 1.28 300.80 1.28L300.80 1.28L300.80 1.28Q292.16 1.28 287.97-3.04L287.97-3.04L287.97-3.04Q283.78-7.36 283.78-15.62ZM300.61-28.86L300.61-28.86L300.61-28.86Q297.73-17.34 297.73-8.26L297.73-8.26L297.73-8.26Q297.73-6.08 298.46-4.67L298.46-4.67L298.46-4.67Q299.20-3.26 301.15-3.26L301.15-3.26L301.15-3.26Q303.10-3.26 304.32-4.19L304.32-4.19L304.32-4.19Q305.54-5.12 306.50-7.23L306.50-7.23L306.50-7.23Q308.03-10.69 309.47-18.02L309.47-18.02L309.47-18.02Q310.91-25.34 311.04-28.38L311.04-28.38L311.04-28.38Q311.17-31.42 311.17-33.73L311.17-33.73L311.17-33.73Q311.17-36.03 310.46-37.50L310.46-37.50L310.46-37.50Q309.76-38.98 307.87-38.98L307.87-38.98L307.87-38.98Q305.98-38.98 304.70-37.82L304.70-37.82L304.70-37.82Q302.34-35.65 300.61-28.86ZM354.18-20.61L367.10-21.76L367.10-21.76Q362.50-11.65 362.50 0.06L362.50 0.06L362.50 0.06Q360.77 1.28 358.24 1.28L358.24 1.28L358.24 1.28Q355.71 1.28 354.11 0.10L354.11 0.10L354.11 0.10Q352.51-1.09 352.19-2.30L352.19-2.30L352.19-2.30Q350.59-0.64 348.00 0.32L348.00 0.32L348.00 0.32Q345.41 1.28 342.66 1.28L342.66 1.28L342.66 1.28Q339.90 1.28 337.50 0.38L337.50 0.38L337.50 0.38Q335.10-0.51 333.25-2.50L333.25-2.50L333.25-2.50Q329.15-6.85 329.15-15.10L329.15-15.10L329.15-15.10Q329.15-27.90 336.00-35.58L336.00-35.58L336.00-35.58Q343.04-43.52 355.52-43.52L355.52-43.52L355.52-43.52Q364.16-43.52 367.23-39.04L367.23-39.04L367.23-39.04Q368.19-37.63 368.19-35.94L368.19-35.94L368.19-35.94Q368.19-34.24 367.46-32.80L367.46-32.80L367.46-32.80Q366.72-31.36 365.57-30.21L365.57-30.21L365.57-30.21Q362.82-27.65 359.42-27.65L359.42-27.65L359.42-27.65Q358.08-27.65 356.80-28.10L356.80-28.10L356.80-28.10Q357.06-30.02 357.06-32.26L357.06-32.26L357.06-32.26Q357.06-34.50 356.90-35.52L356.90-35.52L356.90-35.52Q356.74-36.54 356.35-37.38L356.35-37.38L356.35-37.38Q355.52-39.10 353.70-39.10L353.70-39.10L353.70-39.10Q351.87-39.10 349.86-37.15L349.86-37.15L349.86-37.15Q347.84-35.20 346.24-32L346.24-32L346.24-32Q342.72-24.83 342.72-16.19L342.72-16.19L342.72-16.19Q342.72-12.22 344.26-9.41L344.26-9.41L344.26-9.41Q345.92-6.34 348.86-6.34L348.86-6.34L348.86-6.34Q349.89-6.34 350.82-6.85L350.82-6.85L350.82-6.85Q351.74-7.36 352.13-7.74L352.13-7.74L354.18-20.61Z"
                    fill="#f00" stroke="#0f0" stroke-width="1.8"></path>
            </g>
        </g>
        <g>
            <g transform="translate(65.68002012372017, 97.42999649047852)">
                <path
                    d="M26.11-42.69L26.11-42.69L26.11-42.69Q41.79-42.69 41.79-31.62L41.79-31.62L41.79-31.62Q41.79-25.54 37.89-21.89L37.89-21.89L37.89-21.89Q34.05-18.24 27.33-18.24L27.33-18.24L27.33-18.24Q24.19-18.24 21.76-20.03L21.76-20.03L21.76-20.03Q20.61-20.80 19.84-21.82L19.84-21.82L19.84-21.82Q24.51-21.82 26.98-24.67L26.98-24.67L26.98-24.67Q29.44-27.52 29.44-33.09L29.44-33.09L29.44-33.09Q29.44-38.66 23.94-38.66L23.94-38.66L22.40-38.66L22.40-38.66Q22.02-38.66 21.70-38.59L21.70-38.59L14.34 0L0.45 0L8.32-41.92L8.32-41.92Q15.17-42.56 19.14-42.62L19.14-42.62L19.14-42.62Q23.10-42.69 26.11-42.69ZM68.67 1.28L68.67 1.28L68.67 1.28Q60.48 1.28 59.71-10.37L59.71-10.37L48.70-10.37L48.70-10.37Q47.42-7.42 46.53-4.86L46.53-4.86L44.86 0L35.90 0L56.06-42.24L69.82-42.24L72.51-11.14L72.51-11.14Q73.15-4.42 75.71-2.43L75.71-2.43L75.71-2.43Q73.86 1.28 68.67 1.28ZM54.21-23.17L50.69-15.04L59.52-15.04L58.75-31.49L58.75-33.22L54.21-23.17ZM78.78-0.32L78.78-0.32L86.85-42.24L86.85-42.24Q94.40-42.88 99.26-42.88L99.26-42.88L99.26-42.88Q104.13-42.88 107.26-42.46L107.26-42.46L107.26-42.46Q110.40-42.05 112.51-40.96L112.51-40.96L112.51-40.96Q116.74-38.91 116.74-33.28L116.74-33.28L116.74-33.28Q116.74-30.02 113.92-27.26L113.92-27.26L113.92-27.26Q111.30-24.77 108.42-24.19L108.42-24.19L108.42-24.19Q111.49-23.68 113.66-21.38L113.66-21.38L113.66-21.38Q115.97-18.94 115.97-15.17L115.97-15.17L115.97-15.17Q115.97-7.87 110.53-3.62L110.53-3.62L110.53-3.62Q105.09 0.64 94.40 0.64L94.40 0.64L94.40 0.64Q87.04 0.64 78.78-0.32ZM96.19-20.61L92.99-4.03L92.99-4.03Q93.57-3.97 93.70-3.97L93.70-3.97L94.27-3.97L94.27-3.97Q99.52-3.97 101.76-7.42L101.76-7.42L101.76-7.42Q103.42-10.11 103.42-15.04L103.42-15.04L103.42-15.04Q103.42-17.66 101.73-19.07L101.73-19.07L101.73-19.07Q100.03-20.48 96.19-20.61L96.19-20.61ZM105.92-33.22L105.92-33.22L105.92-33.22Q105.92-38.53 100.80-38.53L100.80-38.53L100.22-38.53L100.22-38.53Q99.97-38.53 99.58-38.46L99.58-38.46L97.02-24.96L97.66-24.96L97.66-24.96Q105.92-25.15 105.92-33.22ZM146.94-9.86L146.94-9.86L146.94-9.86Q148.16-8.32 148.16-5.34L148.16-5.34L148.16-5.34Q148.16-2.37 145.89-0.54L145.89-0.54L145.89-0.54Q143.62 1.28 139.65 1.28L139.65 1.28L139.65 1.28Q137.34 1.28 133.76 0.77L133.76 0.77L133.76 0.77Q126.72-0.32 124.70-0.32L124.70-0.32L124.70-0.32Q122.69-0.32 121.86-0.22L121.86-0.22L121.86-0.22Q121.02-0.13 119.68 0L119.68 0L127.42-42.24L141.44-42.24L135.04-7.04L135.04-7.04Q135.87-6.91 136.64-6.91L136.64-6.91L138.24-6.91L138.24-6.91Q143.62-6.91 146.94-9.86ZM152.77-15.62L152.77-15.62L152.77-15.62Q152.77-27.71 159.04-35.33L159.04-35.33L159.04-35.33Q165.70-43.58 177.28-43.58L177.28-43.58L177.28-43.58Q185.66-43.58 189.89-39.52L189.89-39.52L189.89-39.52Q194.11-35.46 194.11-26.88L194.11-26.88L194.11-26.88Q194.11-13.82 187.46-6.21L187.46-6.21L187.46-6.21Q180.86 1.28 169.79 1.28L169.79 1.28L169.79 1.28Q161.15 1.28 156.96-3.04L156.96-3.04L156.96-3.04Q152.77-7.36 152.77-15.62ZM169.60-28.86L169.60-28.86L169.60-28.86Q166.72-17.34 166.72-8.26L166.72-8.26L166.72-8.26Q166.72-6.08 167.46-4.67L167.46-4.67L167.46-4.67Q168.19-3.26 170.14-3.26L170.14-3.26L170.14-3.26Q172.10-3.26 173.31-4.19L173.31-4.19L173.31-4.19Q174.53-5.12 175.49-7.23L175.49-7.23L175.49-7.23Q177.02-10.69 178.46-18.02L178.46-18.02L178.46-18.02Q179.90-25.34 180.03-28.38L180.03-28.38L180.03-28.38Q180.16-31.42 180.16-33.73L180.16-33.73L180.16-33.73Q180.16-36.03 179.46-37.50L179.46-37.50L179.46-37.50Q178.75-38.98 176.86-38.98L176.86-38.98L176.86-38.98Q174.98-38.98 173.70-37.82L173.70-37.82L173.70-37.82Q171.33-35.65 169.60-28.86ZM209.79-0.32L209.79-0.32L217.86-42.24L217.86-42.24Q225.41-42.88 230.27-42.88L230.27-42.88L230.27-42.88Q235.14-42.88 238.27-42.46L238.27-42.46L238.27-42.46Q241.41-42.05 243.52-40.96L243.52-40.96L243.52-40.96Q247.74-38.91 247.74-33.28L247.74-33.28L247.74-33.28Q247.74-30.02 244.93-27.26L244.93-27.26L244.93-27.26Q242.30-24.77 239.42-24.19L239.42-24.19L239.42-24.19Q242.50-23.68 244.67-21.38L244.67-21.38L244.67-21.38Q246.98-18.94 246.98-15.17L246.98-15.17L246.98-15.17Q246.98-7.87 241.54-3.62L241.54-3.62L241.54-3.62Q236.10 0.64 225.41 0.64L225.41 0.64L225.41 0.64Q218.05 0.64 209.79-0.32ZM227.20-20.61L224.00-4.03L224.00-4.03Q224.58-3.97 224.70-3.97L224.70-3.97L225.28-3.97L225.28-3.97Q230.53-3.97 232.77-7.42L232.77-7.42L232.77-7.42Q234.43-10.11 234.43-15.04L234.43-15.04L234.43-15.04Q234.43-17.66 232.74-19.07L232.74-19.07L232.74-19.07Q231.04-20.48 227.20-20.61L227.20-20.61ZM236.93-33.22L236.93-33.22L236.93-33.22Q236.93-38.53 231.81-38.53L231.81-38.53L231.23-38.53L231.23-38.53Q230.98-38.53 230.59-38.46L230.59-38.46L228.03-24.96L228.67-24.96L228.67-24.96Q236.93-25.15 236.93-33.22ZM277.95-9.86L277.95-9.86L277.95-9.86Q279.17-8.32 279.17-5.34L279.17-5.34L279.17-5.34Q279.17-2.37 276.90-0.54L276.90-0.54L276.90-0.54Q274.62 1.28 270.66 1.28L270.66 1.28L270.66 1.28Q268.35 1.28 264.77 0.77L264.77 0.77L264.77 0.77Q257.73-0.32 255.71-0.32L255.71-0.32L255.71-0.32Q253.70-0.32 252.86-0.22L252.86-0.22L252.86-0.22Q252.03-0.13 250.69 0L250.69 0L258.43-42.24L272.45-42.24L266.05-7.04L266.05-7.04Q266.88-6.91 267.65-6.91L267.65-6.91L269.25-6.91L269.25-6.91Q274.62-6.91 277.95-9.86ZM283.78-15.62L283.78-15.62L283.78-15.62Q283.78-27.71 290.05-35.33L290.05-35.33L290.05-35.33Q296.70-43.58 308.29-43.58L308.29-43.58L308.29-43.58Q316.67-43.58 320.90-39.52L320.90-39.52L320.90-39.52Q325.12-35.46 325.12-26.88L325.12-26.88L325.12-26.88Q325.12-13.82 318.46-6.21L318.46-6.21L318.46-6.21Q311.87 1.28 300.80 1.28L300.80 1.28L300.80 1.28Q292.16 1.28 287.97-3.04L287.97-3.04L287.97-3.04Q283.78-7.36 283.78-15.62ZM300.61-28.86L300.61-28.86L300.61-28.86Q297.73-17.34 297.73-8.26L297.73-8.26L297.73-8.26Q297.73-6.08 298.46-4.67L298.46-4.67L298.46-4.67Q299.20-3.26 301.15-3.26L301.15-3.26L301.15-3.26Q303.10-3.26 304.32-4.19L304.32-4.19L304.32-4.19Q305.54-5.12 306.50-7.23L306.50-7.23L306.50-7.23Q308.03-10.69 309.47-18.02L309.47-18.02L309.47-18.02Q310.91-25.34 311.04-28.38L311.04-28.38L311.04-28.38Q311.17-31.42 311.17-33.73L311.17-33.73L311.17-33.73Q311.17-36.03 310.46-37.50L310.46-37.50L310.46-37.50Q309.76-38.98 307.87-38.98L307.87-38.98L307.87-38.98Q305.98-38.98 304.70-37.82L304.70-37.82L304.70-37.82Q302.34-35.65 300.61-28.86ZM354.18-20.61L367.10-21.76L367.10-21.76Q362.50-11.65 362.50 0.06L362.50 0.06L362.50 0.06Q360.77 1.28 358.24 1.28L358.24 1.28L358.24 1.28Q355.71 1.28 354.11 0.10L354.11 0.10L354.11 0.10Q352.51-1.09 352.19-2.30L352.19-2.30L352.19-2.30Q350.59-0.64 348.00 0.32L348.00 0.32L348.00 0.32Q345.41 1.28 342.66 1.28L342.66 1.28L342.66 1.28Q339.90 1.28 337.50 0.38L337.50 0.38L337.50 0.38Q335.10-0.51 333.25-2.50L333.25-2.50L333.25-2.50Q329.15-6.85 329.15-15.10L329.15-15.10L329.15-15.10Q329.15-27.90 336.00-35.58L336.00-35.58L336.00-35.58Q343.04-43.52 355.52-43.52L355.52-43.52L355.52-43.52Q364.16-43.52 367.23-39.04L367.23-39.04L367.23-39.04Q368.19-37.63 368.19-35.94L368.19-35.94L368.19-35.94Q368.19-34.24 367.46-32.80L367.46-32.80L367.46-32.80Q366.72-31.36 365.57-30.21L365.57-30.21L365.57-30.21Q362.82-27.65 359.42-27.65L359.42-27.65L359.42-27.65Q358.08-27.65 356.80-28.10L356.80-28.10L356.80-28.10Q357.06-30.02 357.06-32.26L357.06-32.26L357.06-32.26Q357.06-34.50 356.90-35.52L356.90-35.52L356.90-35.52Q356.74-36.54 356.35-37.38L356.35-37.38L356.35-37.38Q355.52-39.10 353.70-39.10L353.70-39.10L353.70-39.10Q351.87-39.10 349.86-37.15L349.86-37.15L349.86-37.15Q347.84-35.20 346.24-32L346.24-32L346.24-32Q342.72-24.83 342.72-16.19L342.72-16.19L342.72-16.19Q342.72-12.22 344.26-9.41L344.26-9.41L344.26-9.41Q345.92-6.34 348.86-6.34L348.86-6.34L348.86-6.34Q349.89-6.34 350.82-6.85L350.82-6.85L350.82-6.85Q351.74-7.36 352.13-7.74L352.13-7.74L354.18-20.61Z"
                    fill="none" stroke="#ffffff" stroke-width="2.1"></path>
            </g>
        </g>
    </g>
    <style>text {
        font-size: 64px;
        font-family: Arial Black;
        dominant-baseline: central;
        text-anchor: middle;
        }
    </style>
</svg>